<svg xmlns="http://www.w3.org/2000/svg" viewBox="0 0 40 40" fill="none">
  <!-- Círculo exterior representando el loop/ciclo -->
  <circle cx="20" cy="20" r="18" stroke="#10B981" stroke-width="2" fill="none" opacity="0.3"/>
  
  <!-- Elementos de intercambio/reciclaje formando un círculo -->
  <g transform="translate(20,20)">
    <!-- Flecha curva superior -->
    <path d="M-8,-12 Q-12,-8 -8,-4 L-6,-6 L-4,-2 L-8,-4 Q-10,-6 -8,-8" 
          fill="#059669" stroke="#059669" stroke-width="1"/>
    
    <!-- Flecha curva derecha -->
    <path d="M12,-8 Q8,-12 4,-8 L6,-6 L2,-4 L4,-8 Q6,-10 8,-8" 
          fill="#059669" stroke="#059669" stroke-width="1" 
          transform="rotate(120)"/>
    
    <!-- Flecha curva izquierda -->
    <path d="M12,-8 Q8,-12 4,-8 L6,-6 L2,-4 L4,-8 Q6,-10 8,-8" 
          fill="#059669" stroke="#059669" stroke-width="1" 
          transform="rotate(240)"/>
  </g>
  
  <!-- Círculo central con hoja estilizada -->
  <circle cx="20" cy="20" r="6" fill="#10B981"/>
  
  <!-- Hoja estilizada en el centro -->
  <g transform="translate(20,20)">
    <path d="M0,-4 Q-2,-2 -1,0 Q0,2 1,0 Q2,-2 0,-4 Z" 
          fill="white"/>
    <line x1="0" y1="-4" x2="0" y2="2" stroke="white" stroke-width="0.5"/>
  </g>
  
  <!-- Puntos decorativos representando elementos intercambiables -->
  <circle cx="8" cy="12" r="1.5" fill="#34D399" opacity="0.7"/>
  <circle cx="32" cy="16" r="1.5" fill="#34D399" opacity="0.7"/>
  <circle cx="28" cy="32" r="1.5" fill="#34D399" opacity="0.7"/>
  <circle cx="12" cy="28" r="1.5" fill="#34D399" opacity="0.7"/>
</svg>